<?xml version="1.0" encoding="utf-8"?>
<!-- Generator: Adobe Illustrator 24.3.0, SVG Export Plug-In . SVG Version: 6.00 Build 0)  -->
<svg version="1.1" id="Layer_1" focusable="false" xmlns="http://www.w3.org/2000/svg" xmlns:xlink="http://www.w3.org/1999/xlink"
	 x="0px" y="0px" viewBox="0 0 640 512" style="enable-background:new 0 0 640 512;" xml:space="preserve">
<style type="text/css">
	.st0{fill:#200C21;}
</style>
<path class="st0" d="M365.9,141.3h-4.7l-31.8-25.8c-3.6-2.9-8.9-4.6-14.6-4.6h-62.6c-7.7,0-14.5,3-17.4,7.6l-14,23.1
	c-8.1,1.4-14,6.1-14,11.7v21.2c0,1.7,2.1,3,4.7,3h14c0,10,12.6,18.2,28.1,18.2s28.1-8.1,28.1-18.2h37.5c0,10,12.6,18.2,28.1,18.2
	s28.1-8.1,28.1-18.2h14c2.6,0,4.7-1.4,4.7-3v-15.2C394,149.5,381.4,141.3,365.9,141.3z M253.5,186.8c-7.7,0-14-4.1-14-9.1
	s6.3-9.1,14-9.1s14,4.1,14,9.1S261.3,186.8,253.5,186.8z M274.6,141.3h-33.7l11.2-18.2h22.4V141.3z M288.6,141.3v-18.2h26.1
	l22.5,18.2H288.6z M347.2,186.8c-7.7,0-14-4.1-14-9.1s6.3-9.1,14-9.1s14,4.1,14,9.1S354.9,186.8,347.2,186.8z"/>
</svg>
