<?xml version="1.0" encoding="utf-8"?>
<!-- Generator: Adobe Illustrator 24.3.0, SVG Export Plug-In . SVG Version: 6.00 Build 0)  -->
<svg version="1.1" id="Layer_1" xmlns="http://www.w3.org/2000/svg" xmlns:xlink="http://www.w3.org/1999/xlink" x="0px" y="0px"
	 viewBox="0 0 1920 1080" style="enable-background:new 0 0 1920 1080;" xml:space="preserve">
<style type="text/css">
	.st0{fill:#721455;}
</style>
<g>
	<path class="st0" d="M999.75,529.46c-63.6,0-114.9,51.3-114.9,114.9s51.3,114.9,114.9,114.9s114.9-51.3,114.9-114.9
		S1063.35,529.46,999.75,529.46z M999.75,719.06c-41.1,0-74.7-33.5-74.7-74.7s33.5-74.7,74.7-74.7c41.2,0,74.7,33.5,74.7,74.7
		S1040.85,719.06,999.75,719.06L999.75,719.06z M1146.15,524.76c0,14.9-12,26.8-26.8,26.8c-14.9,0-26.8-12-26.8-26.8
		c0-14.8,12-26.8,26.8-26.8C1134.15,497.96,1146.15,509.96,1146.15,524.76z M1222.25,551.96c-1.7-35.9-9.9-67.7-36.2-93.9
		c-26.2-26.2-58-34.4-93.9-36.2c-37-2.1-147.9-2.1-184.9,0c-35.8,1.7-67.6,9.9-93.9,36.1s-34.4,58-36.2,93.9
		c-2.1,37-2.1,147.9,0,184.9c1.7,35.9,9.9,67.7,36.2,93.9c26.3,26.2,58,34.4,93.9,36.2c37,2.1,147.9,2.1,184.9,0
		c35.9-1.7,67.7-9.9,93.9-36.2c26.2-26.2,34.4-58,36.2-93.9C1224.35,699.76,1224.35,588.96,1222.25,551.96L1222.25,551.96z
		 M1174.45,776.46c-7.8,19.6-22.9,34.7-42.6,42.6c-29.5,11.7-99.5,9-132.1,9c-32.6,0-102.7,2.6-132.1-9
		c-19.6-7.8-34.7-22.9-42.6-42.6c-11.7-29.5-9-99.5-9-132.1c0-32.6-2.6-102.7,9-132.1c7.8-19.6,22.9-34.7,42.6-42.6
		c29.5-11.7,99.5-9,132.1-9c32.6,0,102.7-2.6,132.1,9c19.6,7.8,34.7,22.9,42.6,42.6c11.7,29.5,9,99.5,9,132.1
		C1183.45,676.96,1186.15,747.06,1174.45,776.46z"/>
</g>
</svg>
