<?xml version="1.0" encoding="utf-8"?>
<!-- Generator: Adobe Illustrator 24.3.0, SVG Export Plug-In . SVG Version: 6.00 Build 0)  -->
<svg version="1.1" id="Layer_1" xmlns="http://www.w3.org/2000/svg" xmlns:xlink="http://www.w3.org/1999/xlink" x="0px" y="0px"
	 viewBox="0 0 1920 1080" style="enable-background:new 0 0 1920 1080;" xml:space="preserve">
<style type="text/css">
	.st0{fill:#39B54A;}
</style>
<g>
	<path class="st0" d="M1292.19,527c-41.9-42-97.7-65.1-157-65.1c-122.4,0-222,99.6-222,222c0,39.1,10.2,77.3,29.6,111l-31.5,115
		l117.7-30.9c32.4,17.7,68.9,27,106.1,27h0.1c122.3,0,224.1-99.6,224.1-222C1359.29,624.7,1334.09,569,1292.19,527z M1135.19,868.41
		c-33.2,0-65.7-8.9-94-25.7l-6.7-4l-69.8,18.3l18.6-68.1l-4.4-7c-18.5-29.4-28.2-63.3-28.2-98.2c0-101.7,82.8-184.5,184.6-184.5
		c49.3,0,95.6,19.2,130.4,54.1c34.8,34.9,56.2,81.2,56.1,130.5C1321.79,785.61,1236.89,868.41,1135.19,868.41z M1236.39,730.21
		c-5.5-2.8-32.8-16.2-37.9-18c-5.1-1.9-8.8-2.8-12.5,2.8c-3.7,5.6-14.3,18-17.6,21.8c-3.2,3.7-6.5,4.2-12,1.4
		c-32.6-16.3-54-29.1-75.5-66c-5.7-9.8,5.7-9.1,16.3-30.3c1.8-3.7,0.9-6.9-0.5-9.7c-1.4-2.8-12.5-30.1-17.1-41.2
		c-4.5-10.8-9.1-9.3-12.5-9.5c-3.2-0.2-6.9-0.2-10.6-0.2c-3.7,0-9.7,1.4-14.8,6.9c-5.1,5.6-19.4,19-19.4,46.3
		c0,27.3,19.9,53.7,22.6,57.4c2.8,3.7,39.1,59.7,94.8,83.8c35.2,15.2,49,16.5,66.6,13.9c10.7-1.6,32.8-13.4,37.4-26.4
		s4.6-24.1,3.2-26.4C1245.59,734.31,1241.89,732.91,1236.39,730.21z"/>
</g>
</svg>
